<?xml version="1.0" encoding="utf-8"?>
<!-- Generator: Adobe Illustrator 21.1.0, SVG Export Plug-In . SVG Version: 6.00 Build 0)  -->
<svg version="1.1" id="Layer_1" xmlns="http://www.w3.org/2000/svg" xmlns:xlink="http://www.w3.org/1999/xlink" x="0px" y="0px"
	 viewBox="0 0 100 100" style="enable-background:new 0 0 100 100;" xml:space="preserve">
<style type="text/css">
	.st0{fill:url(#SVGID_1_);}
	.st1{fill:url(#SVGID_2_);}
	.st2{fill:url(#SVGID_3_);}
	.st3{fill:url(#SVGID_4_);}
	.st4{fill:url(#SVGID_5_);}
	.st5{fill:url(#SVGID_6_);}
</style>
<g>
	<linearGradient id="SVGID_1_" gradientUnits="userSpaceOnUse" x1="35.6244" y1="34.6833" x2="65.1244" y2="65.9333">
		<stop  offset="0" style="stop-color:#FFFF00"/>
		<stop  offset="1" style="stop-color:#ED1E79"/>
	</linearGradient>
	<path class="st0" d="M50.1,64.3L50.1,64.3c-1.6,0-2.9-1.3-2.9-2.9v-23c0-1.6,1.3-2.9,2.9-2.9h0c1.6,0,2.9,1.3,2.9,2.9v23
		C52.9,63,51.7,64.3,50.1,64.3z">
		<animateTransform id="bar-1"
			attributeName="transform"
			attributeType="XML"
			type="translate"
			begin="0.6s"
			dur="1.5s"
			values="0,3;0,-3;0,3"
			repeatCount="indefinite" />

	</path>
	<linearGradient id="SVGID_2_" gradientUnits="userSpaceOnUse" x1="40.785" y1="29.8117" x2="70.285" y2="61.0617">
		<stop  offset="0" style="stop-color:#FFFF00"/>
		<stop  offset="1" style="stop-color:#ED1E79"/>
	</linearGradient>
	<path class="st1" d="M59.8,64.3L59.8,64.3c-1.6,0-2.9-1.3-2.9-2.9v-23c0-1.6,1.3-2.9,2.9-2.9h0c1.6,0,2.9,1.3,2.9,2.9v23
		C62.7,63,61.4,64.3,59.8,64.3z">
		<animateTransform id="bar-1"
			attributeName="transform"
			attributeType="XML"
			type="translate"
			dur="1.5s"
			values="0,3;0,-3;0,3"
			repeatCount="indefinite" />

	</path>
	<linearGradient id="SVGID_3_" gradientUnits="userSpaceOnUse" x1="45.9456" y1="24.94" x2="75.4456" y2="56.19">
		<stop  offset="0" style="stop-color:#FFFF00"/>
		<stop  offset="1" style="stop-color:#ED1E79"/>
	</linearGradient>
	<path class="st2" d="M69.6,64.3L69.6,64.3c-1.6,0-2.9-1.3-2.9-2.9v-23c0-1.6,1.3-2.9,2.9-2.9h0c1.6,0,2.9,1.3,2.9,2.9v23
		C72.5,63,71.2,64.3,69.6,64.3z">
		<animateTransform id="bar-1"
			attributeName="transform"
			attributeType="XML"
			type="translate"
			begin="1.2s"
			dur="1.5s"
			values="0,3;0,-3;0,3"
			repeatCount="indefinite" />

	</path>
	<linearGradient id="SVGID_4_" gradientUnits="userSpaceOnUse" x1="25.215" y1="44.5097" x2="54.715" y2="75.7597">
		<stop  offset="0" style="stop-color:#FFFF00"/>
		<stop  offset="1" style="stop-color:#ED1E79"/>
	</linearGradient>
	<path class="st3" d="M30.4,64.3L30.4,64.3c-1.6,0-2.9-1.3-2.9-2.9v-23c0-1.6,1.3-2.9,2.9-2.9h0c1.6,0,2.9,1.3,2.9,2.9v23
		C33.2,63,32,64.3,30.4,64.3z">
		<animateTransform id="bar-1"
			attributeName="transform"
			attributeType="XML"
			type="translate"
			begin="0.9s"
			dur="1.5s"
			values="0,3;0,-3;0,3"
			repeatCount="indefinite" />

	</path>
	<linearGradient id="SVGID_5_" gradientUnits="userSpaceOnUse" x1="30.4197" y1="39.5965" x2="59.9197" y2="70.8465">
		<stop  offset="0" style="stop-color:#FFFF00"/>
		<stop  offset="1" style="stop-color:#ED1E79"/>
	</linearGradient>
	<path class="st4" d="M40.2,64.3L40.2,64.3c-1.6,0-2.9-1.3-2.9-2.9v-23c0-1.6,1.3-2.9,2.9-2.9h0c1.6,0,2.9,1.3,2.9,2.9v23
		C43.1,63,41.8,64.3,40.2,64.3z">
		<animateTransform id="bar-1"
			attributeName="transform"
			attributeType="XML"
			type="translate"
			begin="0.3s"
			dur="1.5s"
			values="0,3;0,-3;0,3"
			repeatCount="indefinite" />

	</path>
</g>
<linearGradient id="SVGID_6_" gradientUnits="userSpaceOnUse" x1="39.7104" y1="71.875" x2="60.2896" y2="71.875">
	<stop  offset="0" style="stop-color:#FFFF00"/>
	<stop  offset="1" style="stop-color:#ED1E79"/>
</linearGradient>
<path class="st5" d="M59.4,72.8H40.6c-0.5,0-0.9-0.4-0.9-0.9l0,0c0-0.5,0.4-0.9,0.9-0.9h18.8c0.5,0,0.9,0.4,0.9,0.9l0,0
	C60.3,72.4,59.9,72.8,59.4,72.8z">
	<animateTransform id="bar-1"
		attributeName="transform"
		attributeType="XML"
		type="translate"
		begin="0.3s"
		dur="2s"
		values="6,0;-6,0;6,0"
		repeatCount="indefinite" />

</path>
</svg>
